<svg xmlns="http://www.w3.org/2000/svg" xmlns:xlink="http://www.w3.org/1999/xlink" xmlns:xodm="http://www.corel.com/coreldraw/odm/2003" xml:space="preserve" version="1.1" style="shape-rendering:geometricPrecision; text-rendering:geometricPrecision; image-rendering:optimizeQuality; fill-rule:evenodd; clip-rule:evenodd" viewBox="1874.51 3683.83 4829.6 4178.23">
 <defs>
  <style type="text/css">
   <![CDATA[
    .fil0 {fill:#042F2C}
   ]]>
  </style>
 </defs>
 <g id="Layer_x0020_1">
  <metadata id="CorelCorpID_0Corel-Layer"/>
  <path class="fil0" d="M2523.25 5076.99c-0.02,-30.11 -0.07,-60.18 -0.27,-90.27 -0.17,-25.54 4.3,-57.09 5.59,-83.82 7.94,-163.46 -3.94,-337.64 -49.23,-491.41 -23.17,-78.64 -56.75,-151.44 -106.59,-213.05l-43.86 -47.04c-61.42,-53.32 -129.82,-89.38 -216.5,-99.14 -24.49,-2.76 -59.53,-6.41 -82.41,1.24 -77.86,26.03 -68.26,119.72 -76.7,196.19l-72.54 653.09c-9.28,83.06 -7.5,85.28 0.8,167.14 28.09,276.88 56.26,552.98 77.41,830.95 3.7,48.72 2.37,121.62 18.08,163.2 27.65,73.19 84.38,128.54 136.09,183.58l208.18 197.79c33.33,27.45 62.03,58.5 94.92,87.09l252.17 247.1c7.28,8.28 14.91,14.14 21.96,22.31l65.16 72.49c63.1,73.22 124.72,147.13 170.82,235.3 61.49,117.62 61.56,152.87 61.56,301.21 0,60.66 0,121.32 0,181.98 0,57.86 -3.21,125.41 0.25,182.08 7.14,116.88 179.96,115.27 185.43,-2.32 2.7,-58.26 0.15,-123.1 0.15,-182.09 0,-59.89 0,-119.77 0,-179.65 0,-137.57 0.44,-197.47 -48.77,-315.61 -61,-146.44 -166.88,-274.15 -270.07,-387.82 -53.96,-59.45 -110.01,-117.11 -167.53,-173.17l-91.47 -88.15c-16.16,-14.27 -31.15,-29.47 -47.51,-43.52 -8.89,-7.63 -15.06,-15.43 -23.7,-22.92l-71.17 -64.25c-77.43,-73.52 -158.25,-143.57 -230.87,-221.72 -8.23,-8.85 -15.51,-14.03 -23.06,-23.56 -21.2,-26.74 -48.44,-44.32 -49.68,-84.74 -0.89,-28.97 -2.98,-58.11 -5,-86.83 -19.54,-277.61 -49.14,-553.89 -76.59,-830.72 -2.71,-27.37 -6.7,-56.2 -8.31,-83.46 -1.63,-27.59 39.07,-364.04 44.05,-408.97 11.96,-107.88 27.05,-218.59 36.02,-326.34 33.98,8.88 71.72,45.63 88.39,65.56 119.7,143 124.14,468.28 110.44,646.75 -2.24,29.22 -4.97,199.11 0.66,229.27 34.95,187.3 83.35,374.34 143.67,546.8 13.03,37.25 28.31,75.08 43.59,110.44 15.8,36.57 42.44,57.45 71.13,82.83 14.14,12.52 24.54,25.11 38.45,38.51l153.85 151.81c6.81,6.84 13.91,12.04 20.74,18.91l170.48 174.85c19.61,20.98 46.45,58.98 91.9,61.74 46.53,2.82 81.76,-26.72 93.84,-59.08 24.67,-66.13 -19.33,-95.88 -51.26,-130.09l-93.73 -97.63c-63.38,-64.19 -125.78,-129.37 -191.67,-190.97 -26.64,-24.9 -51.11,-51.28 -77.64,-76.34 -13.64,-12.89 -26.35,-24.19 -39.6,-37.39 -17.15,-17.1 -20.68,-23.44 -30.44,-46.53 -30.16,-71.3 -55.21,-152.74 -77.84,-230.1 -16.35,-55.89 -54.61,-190.12 -60.44,-242.89 39.46,-1.84 114.23,12.3 148.6,24 69.9,23.81 104.5,62.48 143.91,117.39 12.06,16.81 22.31,33.81 34.64,51.7 23.92,34.71 43.81,70.3 67.54,105.15 35.7,52.43 69.16,104.76 108.14,153.17 59.07,73.35 48.08,70.23 132.68,126.26l206.66 141.05c74.65,52.41 214.86,140.61 279.99,198.26l114.48 102.49c28.95,25.07 47.59,48.96 66.14,64.55 21.9,18.41 43.02,44.82 62.11,66.28 4,4.5 7.61,7.16 11.51,11.7 63.56,73.85 130.15,151.54 165.38,245.3 20.81,55.39 17.06,95.33 15.23,157.06 -3.19,107.42 -14.93,211.49 -32.72,314.65 -16.67,96.69 -44.94,194.32 -55.63,292.04 -4.41,40.29 -6.27,303.75 -2.57,342.98 10.19,108.11 168.81,109.43 184.1,4.27 7.89,-54.27 -6.61,-259.87 5.06,-342.65 13.66,-96.94 40.11,-192.82 56.59,-290.92 8.48,-50.5 15.33,-101.08 20.36,-152.4 4.62,-47.19 7.1,-129.78 11.15,-161.98l2.76 10.26c2.97,24.58 2.15,50.11 3.71,74.78 4.87,77.08 14.31,155.23 26.68,231.02 16.06,98.35 43.76,193.82 56.88,291.24 11.13,82.63 -2.77,290.87 5.1,342.22 15.86,103.48 172.25,101.42 183.81,-4.86 2.75,-25.3 0.74,-60.98 0.74,-87.37 0,-80.4 4.84,-177.38 -3.13,-254.47 -10.05,-97.2 -38.32,-195.87 -55.71,-292.56 -18.19,-101.11 -29.45,-208.39 -32.66,-313.83 -1.83,-60.16 -6.57,-104.53 13.78,-158.1 43.68,-115.01 140.02,-219.73 217.86,-302.44 12.99,-13.81 29.9,-33.6 43.86,-44.8l88.69 -83.94c17.2,-18.82 73.97,-64.06 94.38,-80.61 16.44,-13.33 30.61,-23.1 49.81,-36.55 135.96,-95.22 275.25,-186.22 411.22,-281.67 38.67,-27.15 65.43,-39.83 95.37,-77.3 50.62,-63.34 102.66,-131.24 146.18,-201.48 10.74,-17.33 23.17,-37.05 34.68,-54.03 46.56,-68.73 83.38,-146.22 152.43,-192.8 59,-39.79 135.92,-50.7 208.69,-53.43 -8.9,65.28 -42.7,183.55 -62.17,248.88 -23.77,79.81 -48.39,154.78 -78.54,229.48 -12.96,32.11 -47.37,60.2 -71.43,82.53 -26.8,24.87 -50.87,50.63 -77.84,76.14 -78.76,74.48 -154.93,151.65 -229.45,230.2l-75.87 78.07c-66.13,62.79 -26.6,175.9 69.99,165.43 45.47,-4.93 68.76,-41.94 89.59,-64.17 6.72,-7.18 13.52,-12.11 20.33,-19.26l55.57 -58.81c13.14,-13.41 24.66,-25.93 38.06,-38.93 7.25,-7.02 13.85,-11.63 20.91,-18.75l56.87 -57.46c12.43,-12.33 24.02,-25.3 36.83,-37.81l117.31 -113.71c25.87,-28 50.52,-49.98 77.53,-76.38 16.29,-15.92 20.34,-20.06 30.61,-46.45 14.46,-37.16 30.17,-73 43.2,-110.76 52.9,-153.43 98.9,-313.65 131.49,-482.02 13.65,-70.51 14.18,-66.91 14.18,-141.01 0,-50.74 2.59,-102.19 -2.78,-152.65 -17.14,-161.38 -3,-396.83 57.01,-545.69 25.06,-62.17 74.73,-143.87 143.11,-163.32 8.63,102.05 83.2,702.39 79.65,740.38l-57.38 577.63c-10.6,111.34 -21.35,223.2 -29.02,334.81 -9.02,131.18 6.5,98.58 -78.81,194.29l-184.2 177.48c-38.93,36.46 -78.16,74.88 -118.63,109.98 -31.85,27.63 -60.72,59.44 -92.23,87.36l-46.59 44.41c-51.1,47.41 -138.22,134.05 -180.52,183.48l-63.62 71.73c-81.39,90.15 -168.32,217.87 -216.39,329.55 -49.43,114.86 -45.95,182.22 -45.95,315.7 0,60.66 0,121.32 0,181.99 0,54.88 -4.23,129 0.57,181.58 10.29,112.76 180.43,110.46 185.2,-6.74 2.39,-58.73 0.13,-122.55 0.13,-181.84 0,-60.67 0,-121.33 0,-181.99 0,-134.63 -3.78,-182.88 61.6,-300.74 22.97,-41.41 45.91,-74.34 71.47,-110.57 20.88,-29.6 77.47,-101.42 102.06,-126.62l131.63 -141.35c37.25,-37.14 100.68,-100.42 138.76,-134.2 8.26,-7.32 14.09,-14.41 22.38,-21.88l119.27 -109.48c20.49,-21.6 54.33,-48.14 69.85,-65.43 7.7,-8.58 14.31,-14.09 22.74,-21.58 8.63,-7.68 13.78,-13.44 22.52,-21.75 8.41,-8 16.24,-14.03 24.91,-21.86 7.85,-7.09 14.2,-15.27 21.72,-22.55 43.9,-42.49 96.24,-90.62 133.72,-139.31 92.11,-119.65 73.01,-123.68 84.85,-276.9 17.09,-221.24 39.22,-443.33 62,-663.72 5.37,-51.91 23.4,-202.48 24.83,-248.52 1.14,-36.69 -37.97,-356.81 -43.82,-409.33 -12.19,-109.54 -24.38,-218.52 -36.44,-327.93 -7.88,-71.49 0.01,-170.96 -80.13,-192.67 -24.19,-6.55 -56.24,-2.53 -81.73,0.44 -70.39,8.21 -170.21,49.73 -216.86,102.46 -7.13,8.07 -13.82,14.43 -22.22,22.1 -53.11,48.48 -105.64,169.96 -125.84,235.87 -54.81,178.82 -61.69,388.13 -43.02,576.62 2.48,25.03 0.38,61.5 0.38,87.78 -67.59,7.34 -124.78,8.69 -189.35,25.07 -177.6,45.07 -244.15,144.29 -343.31,298.37 -42.48,66 -83.95,129.28 -130.65,191.34 -15.07,20.04 -31.02,41.67 -46.85,60.51 -12.57,14.95 -107.87,75.57 -126.27,88.4 -104.92,73.17 -212.42,143.56 -317.26,217.02 -37.23,26.09 -74.15,50.83 -107.91,81.08 -6.86,6.15 -8.49,6.74 -14.18,11.5 -10.94,9.18 -18.14,16.98 -28.56,25.05 -5.81,4.5 -9.13,8.43 -14.81,13.14 -5.85,4.85 -8.78,6.5 -13.85,11.9 -17.17,18.28 -40.69,33.35 -55.81,51.48 -14.63,17.54 -36.55,33.7 -53.48,51.51 -76.49,80.45 -130.52,135.07 -198.3,231.03 -66.48,94.12 -110.51,179.37 -126.48,299.5 -6.76,-116.67 -75.94,-231.42 -127.47,-302.92 -63.77,-88.48 -127.94,-160.74 -197.6,-229.37l-81.68 -79.24c-63.78,-58.55 -134.96,-120 -206.79,-166.61l-189.78 -129.86c-25.99,-18.21 -238.34,-158.16 -252.96,-176.3 -61.7,-76.55 -119.62,-159.65 -176.22,-250.75 -90.82,-146.2 -165.3,-252.14 -344.44,-297.3 -83.17,-20.96 -137.92,-15 -187.06,-25.06zm2944.35 -828.37c0,0 168.42,1289.28 -1097.63,1399.62 0,0 377.49,-853.71 807.25,-1062.78 0,0 -431.19,171.04 -608.72,544.3 -177.52,373.26 -250.18,441.3 -250.18,441.3 -130.68,-637.13 563.26,-1283.12 1149.27,-1322.43zm-2314.14 -564.79c0,0 1012.14,255.7 1076.07,1299.8l-14.59 259.43c0,0 -324.15,-705.5 -781.78,-1110.69 0,0 619.7,719.8 796.07,1487.27 -980.13,22.57 -1291.52,-1104.41 -1075.78,-1935.81z"/>
 </g>
</svg>